<?xml version="1.0" standalone="no"?>
<!DOCTYPE svg PUBLIC "-//W3C//DTD SVG 20010904//EN"
 "http://www.w3.org/TR/2001/REC-SVG-20010904/DTD/svg10.dtd">
<svg version="1.0" xmlns="http://www.w3.org/2000/svg"
 width="1893.000000pt" height="1893.000000pt" viewBox="0 0 1893.000000 1893.000000"
 preserveAspectRatio="xMidYMid meet">
<metadata>
Created by potrace 1.11, written by Peter Selinger 2001-2013
</metadata>
<g transform="translate(0.000000,1893.000000) scale(0.100000,-0.100000)"
fill="#000000" stroke="none">
<path d="M2905 18321 c-1402 -203 -2570 -374 -2595 -381 -131 -33 -240 -120
-281 -225 l-24 -60 0 -8410 c0 -8194 0 -8411 19 -8465 81 -238 269 -404 548
-484 48 -14 133 -30 189 -36 67 -6 936 -10 2580 -10 l2479 0 0 103 c0 56 -4
419 -10 807 -11 778 -29 2383 -60 5255 -60 5569 -68 6472 -59 6525 17 93 80
208 160 294 124 133 278 216 474 257 87 18 198 19 3030 19 2827 0 2943 -1
3030 -19 188 -39 330 -114 455 -240 89 -90 135 -162 165 -261 19 -61 21 -242
85 -5760 52 -4598 61 -5406 68 -6200 l7 -775 2440 -3 c1556 -2 2480 1 2550 7
259 24 473 121 619 283 64 71 129 191 145 270 8 38 10 1668 9 5773 l-3 5720
-28 90 c-73 234 -199 444 -374 626 -58 60 -136 131 -172 158 -94 69 -8391
5107 -8477 5147 -158 74 -358 114 -566 114 -200 0 -381 -33 -541 -100 -48 -20
-627 -375 -1540 -945 -804 -502 -1463 -912 -1464 -911 -1 1 5 145 13 320 11
228 14 504 12 984 -3 665 -3 667 -26 735 -28 81 -67 129 -120 145 -111 33 -54
41 -2737 -347z"/>
<path d="M10880 8875 c-512 -105 -906 -667 -991 -1414 -15 -137 -6 -493 16
-621 73 -425 238 -774 479 -1012 197 -195 410 -289 654 -289 164 0 307 43 459
136 101 62 288 249 366 366 168 253 282 588 318 938 15 141 6 458 -15 595 -76
480 -295 894 -591 1121 -213 163 -463 227 -695 180z"/>
</g>
</svg>
