<svg viewBox="0 0 200 200" xmlns="http://www.w3.org/2000/svg"><path d="M0 0h200v200H0z" fill="none"/><g fill="#c00"><path d="M100.4 129.7c-28.7 0-51.9-23.2-51.9-51.9s23.3-51.9 51.9-51.9c28.7 0 51.9 23.2 51.9 51.9.1 28.7-23.2 51.9-51.9 51.9m0-129.7c-43 0-77.8 34.9-77.8 77.9s34.8 77.8 77.8 77.8 77.9-34.8 77.9-77.8S143.4 0 100.4 0z"/><path d="M100.4 51.2c-14.7 0-26.7 11.9-26.7 26.7 0 14.7 11.9 26.7 26.7 26.7 14.7 0 26.7-11.9 26.7-26.7s-11.9-26.7-26.7-26.7M30.1 176h-8.6v-5.3h23.4v5.3h-8.5v23.3h-6.3zm12.1 23.3h6.4l2.2-6.4h10.7l2.2 6.4h6.5l-10.7-28.6H53zm14-21.6l3.7 10.5h-7.4zm16.5 21.6H79v-11.2h6.3c3.2 0 4.3 1.3 4.8 4.3.3 2.3.2 5.1 1 6.9h6.3c-1.1-1.6-1.1-5-1.2-6.8-.2-2.9-1.1-5.9-4.2-6.7v-.1c3.2-1.3 4.5-3.8 4.5-7.2 0-4.3-3.3-7.9-8.4-7.9H72.7zm6.3-23.7h6.9c2.8 0 4.3 1.2 4.3 4 0 2.9-1.5 4.1-4.3 4.1H79zm42.6 20.5c-2.2 2.9-5.1 3.9-7.9 3.9-8.9 0-14.1-6.6-14.1-14.9 0-8.5 5.2-15.1 14.1-15.1 5.9 0 11.4 3.6 12.1 10.1h-6c-.7-3.2-3.1-4.8-6.1-4.8-5.7 0-7.8 4.8-7.8 9.8 0 4.8 2.1 9.6 7.8 9.6 4.1 0 6.5-2.2 6.8-6.2h-6.3v-4.7h12v15.5h-4zm8.9-25.4h21.4v5.3h-15.1v6.1h13.9v4.9h-13.9v7h15.5v5.3h-21.8zm33.1 5.3h-8.5v-5.3h23.4v5.3h-8.6v23.3h-6.3z"/></g></svg>