<svg enable-background="new 0 0 200 200" viewBox="0 0 200 200" xmlns="http://www.w3.org/2000/svg"><path d="m0 0h200v200h-200z" fill="none"/><path d="m97.4 69.5c.9.2 1.9.3 2.8.5 1.6.3 3.1.9 4.4 1.9 2.1 1.5 3.2 3.6 3.5 6.1.1 1.3.2 2.7.2 4v10.7c0 1.9.5 3.5 1.6 5 .3.3.5.7.8 1.1.4.7.3 1.2-.3 1.7-1.4 1.2-2.9 2.5-4.3 3.7-.8.7-1.3.7-2.1 0-1-.8-1.8-1.8-2.5-2.8-.2-.3-.4-.6-.6-1-.5.5-1 1-1.6 1.4-2.8 2.6-6.2 3.3-9.9 3-2-.2-3.8-.9-5.3-2.3s-2.3-3.1-2.6-5.1c-.4-2.6-.2-5.2 1.1-7.6 1.5-2.7 3.9-4.3 6.7-5.3 2.2-.7 4.5-1 6.9-1.3 1.1-.1 2.2-.2 3.4-.4 0-1.5.2-3-.3-4.5-.6-1.7-2-2.3-3.6-2.4-2.5-.1-4.7 1.1-5.3 3.7-.2.8-.6 1.1-1.5 1-1.8-.2-3.6-.4-5.4-.6-.9-.1-1.3-.7-1.1-1.6 1-4.7 4.1-7.4 8.6-8.6 1.1-.3 2.2-.4 3.3-.6.1 0 .3-.1.4-.1.8.4 1.8.4 2.7.4zm2.1 18.4c-1.8 0-3.6.1-5.3.7-1.8.6-3.2 1.7-3.7 3.7-.3 1-.3 2.1-.1 3.2.3 1.8 1.5 2.9 3 3.1 1.4.2 2.5-.2 3.6-1.1.9-.8 1.5-1.8 1.9-3 .8-2.2.5-4.4.6-6.6z"/><path d="m16.2 69.5c.9.2 1.9.3 2.8.5 1.6.3 3 .9 4.4 1.8 2.3 1.6 3.3 3.9 3.5 6.6.1 1.2.1 2.3.1 3.5v10.7c0 1.9.5 3.6 1.7 5.1.3.3.5.7.8 1.1.4.6.3 1.1-.3 1.6-1.5 1.3-2.9 2.5-4.4 3.8-.7.6-1.3.6-2.1 0-1-.8-1.8-1.8-2.5-2.8-.2-.3-.4-.6-.6-.9-.7.6-1.3 1.2-1.9 1.7-2.1 1.8-4.5 2.6-7.3 2.7-1.8.1-3.5-.1-5.1-.8-2.9-1.3-4.5-3.6-5-6.7-.1-.3-.1-.7-.2-1 0-.8 0-1.5 0-2.3.1-.4.1-.9.2-1.3.8-4.1 3.4-6.7 7.2-8.1 2.7-1 5.5-1.3 8.3-1.6.8-.1 1.7-.2 2.6-.3-.1-1.3-.1-2.6-.3-3.8-.1-1.1-.7-1.9-1.7-2.5-2.2-1.2-6.5-.6-7.3 3.1 0 .1-.1.3-.1.4-.2.6-.6.8-1.2.7-1-.1-2-.2-3-.3-.8-.1-1.6-.2-2.4-.3-.9.1-1.4-.5-1.3-1.1.4-1.9 1.1-3.7 2.4-5.2 1.9-2.2 4.3-3.3 7-3.9 1-.2 2-.3 3-.5.9.1 1.8.1 2.7.1zm2.1 18.4c-1.8 0-3.4.1-5 .6-2.7.8-4 2.6-4.2 5.4 0 1 .1 1.9.5 2.8.9 1.8 3.1 2.5 5.1 1.4 1.4-.7 2.2-1.9 2.8-3.3 1-2.2.8-4.5.8-6.9z"/><path d="m200.1 103.5c-.3.6-.8.9-1.5.8-1.9 0-3.8 0-5.6 0-1 0-1.4-.4-1.4-1.4 0-6.1 0-12.2 0-18.3 0-1.4-.1-2.8-.3-4.1-.4-2.1-1.9-3.2-3.7-3-1.6.1-2.6 1.1-3.3 2.4-.7 1.5-1 3.1-1 4.8v17.9.5c0 .8-.5 1.3-1.3 1.3-2 0-4 0-6 0-.7 0-1.2-.5-1.2-1.2 0-.1 0-.2 0-.4 0-10.3 0-20.6 0-30.9 0-1.1.4-1.5 1.5-1.5h5.2c1 0 1.4.4 1.4 1.4v3.9c0 .1 0 .3.1.5.1-.2.1-.3.2-.5.6-1.4 1.4-2.8 2.5-3.9 1.6-1.6 3.7-2.1 5.9-2 2.5 0 4.6.8 6.3 2.7 1.2 1.3 1.8 2.9 2 4.7.1 1 .2 1.9.3 2.9 0 .1 0 .3.1.4-.2 7.7-.2 15.3-.2 23z"/><path d="m78.6 129.7c-.8-.1-1.6-.1-2.4-.2-5.7-.3-11.2-1.3-16.7-2.8-9.1-2.6-17.5-6.7-25.1-12.4-1.9-1.4-3.8-3.1-5.6-4.6-.2-.2-.3-.3-.5-.5-.2-.3-.2-.7 0-1s.6-.4 1-.3c.3.1.6.2.9.4 8.7 5 18 8.6 27.8 10.9 4.5 1.1 9 1.8 13.6 2.3 5.5.6 11 .7 16.6.4 11.8-.8 23.1-3.4 34-7.9.4-.2.9-.3 1.3-.2.6 0 1.1.4 1.3 1s0 1.1-.4 1.5c-.5.4-1 .8-1.5 1.2-5.1 3.5-10.7 6.1-16.6 8.1-5.2 1.8-10.6 3-16.1 3.6-2 .2-4 .3-6 .5-.2 0-.4.1-.7.1-1.5-.1-3.2-.1-4.9-.1z" fill="#f69500"/><path d="m42.4 75.6c1.4-3.7 4-5.8 8-5.9 4.1-.1 6.6 2.2 8.1 5.9.2-.4.3-.7.4-.9 1.7-3.5 5.1-5.1 8.7-4.9 2.7.2 4.9 1.2 6.6 3.4.9 1.2 1.3 2.6 1.5 4.1.1 1.1.2 2.1.2 3.2v22.4.3c0 .7-.4 1.2-1.2 1.2-2.1 0-4.1 0-6.2 0-.7 0-1.1-.5-1.1-1.3 0-2.3 0-4.6 0-6.9 0-4.2 0-8.5 0-12.7 0-.9 0-1.7-.1-2.6-.3-2.7-2.7-4.1-5.2-3-1.6.7-2.4 2.1-2.6 3.8-.1 1.1-.2 2.3-.2 3.4v17.6c0 1.2-.4 1.5-1.6 1.5-1.8 0-3.7 0-5.5 0-1 0-1.4-.4-1.4-1.4 0-6.2 0-12.3 0-18.5 0-1.3-.1-2.7-.3-4-.5-2.4-2.6-3.5-4.9-2.7-1.1.4-1.8 1.1-2.1 2.2-.3 1-.6 2.1-.6 3.2-.1 2.1-.1 4.1-.1 6.2v13.4c0 1.2-.4 1.5-1.6 1.5-1.8 0-3.7 0-5.5 0-1 0-1.4-.4-1.4-1.4 0-10.3 0-20.7 0-31 0-1.1.4-1.5 1.5-1.5h5.2c1 0 1.4.4 1.4 1.4v3.8c-.1.2-.1.2 0 .2z"/><path d="m142 87.3c0-3.6.6-7.2 2.3-10.4 1.8-3.4 4.4-5.8 8.1-6.7 6.1-1.5 12.5.6 15.7 7.6 1.7 3.7 2.2 7.7 1.9 11.8-.2 3.5-1.2 6.8-3.2 9.7-4.2 6.2-11.6 6.9-16.6 4.5-2.6-1.3-4.5-3.4-5.8-5.9-1.6-3.1-2.2-6.3-2.3-9.8-.1-.3-.1-.5-.1-.8zm9.2-.4v3c0 1 .2 2 .3 2.9.2 1.4.5 2.7 1.3 3.9.5.8 1.2 1.4 2.1 1.7 1.9.5 3.8-.3 4.7-2.3.7-1.3 1-2.7 1.1-4.1.3-3.4.3-6.7-.2-10.1-.2-1.2-.4-2.4-1-3.5-1.2-2.6-5.1-2.7-6.6-.7-.6.8-1 1.8-1.3 2.8-.5 2-.5 4.2-.4 6.4z"/><path d="m126.4 93.1c1.9.2 3.8.3 5.7.6 2 .3 3.8 1 5.6 1.9.9.5 1.3 1.2 1.3 2.1v4.4.2c-.1.9-.8 1.4-1.7 1-2.3-1.2-4.8-1.9-7.3-2.3-4.8-.6-9.4.1-13.8 2.3-.7.4-1.3.1-1.6-.6 0-.1-.1-.3-.1-.4 0-1.7 0-3.3 0-5 0-1.1.3-2.1 1-3 3.9-5.5 7.7-11 11.5-16.5.1-.2.3-.4.4-.6-.2 0-.4 0-.5 0-3.3 0-6.5 0-9.8 0-1.1 0-1.4-.4-1.4-1.5 0-1.3 0-2.7 0-4 0-.9.4-1.3 1.3-1.3h20c1 0 1.4.4 1.4 1.4v3c0 .9-.2 1.6-.7 2.3-1 1.5-2.1 3-3.1 4.4-2.6 3.8-5.3 7.6-7.9 11.3-.2.1-.2.3-.3.3z"/><path d="m126.4 105.8c2 0 4 .1 5.9.6.1 0 .2.1.3.1 1.4.4 1.7.9 1.8 2.3.1 2.6-.5 5-1.4 7.5-1.1 3-2.6 5.7-4.9 8-.3.3-.6.6-1 .8-.3.2-.7.4-1.1.1-.3-.3-.2-.7-.1-1 .7-2 1.6-4 2.2-6.1.5-1.5.8-3 1.1-4.5.1-.6.1-1.2 0-1.8s-.4-1.1-1-1.3c-.8-.2-1.7-.5-2.5-.5-2.6-.2-5.1 0-7.7.3-.9.1-1.8.2-2.7.3-.4 0-.7 0-.9-.4s0-.7.3-.9c.8-.5 1.6-1.1 2.4-1.5 3.1-1.4 6.2-1.9 9.3-2z" fill="#f69500"/></svg>